# xmcd
#
# Track frame offsets:
#	150
#	12080
#	22957
#	34940
#	42535
#	59175
#	73150
#	86462
#	101445
#	112575
#	127590
#	139745
#	151562
#	162950
#	175822
#	189905
#	202500
#	227157
#
# Disc length: 3325 seconds
#
# Revision: 1
# Processed by: cddbd v1.5.1PL0 Copyright (c) Steve Scherf et al.
# Submitted via: CDex 1.50Beta5
#
DISCID=d60cfb12
DTITLE=さまざまなアーティスト - ボサノヴァ
DYEAR=1900
DGENRE=
TTITLE0=ジェット機のサンバ
TTITLE1=イパネマの娘
TTITLE2=もっとサンバを
TTITLE3=サマー・サンバ
TTITLE4=フェリシダージ
TTITLE5=カーニヴァルの朝
TTITLE6=マリア・ニンゲン
TTITLE7=ウェイヴ
TTITLE8=彼女はカリオカ
TTITLE9=私の恋人
TTITLE10=ジザフィナード
TTITLE11=コルコヴァード
TTITLE12=小舟
TTITLE13=ビーチ・サンバ
TTITLE14=無意味な風景
TTITLE15=サテン・ドール
TTITLE16=ムーンライト・セレナーデ
TTITLE17=オール・ザ・ウェイ
EXTD=
EXTT0=
EXTT1=
EXTT2=
EXTT3=
EXTT4=
EXTT5=
EXTT6=
EXTT7=
EXTT8=
EXTT9=
EXTT10=
EXTT11=
EXTT12=
EXTT13=
EXTT14=
EXTT15=
EXTT16=
EXTT17=
PLAYORDER=
